<?xml version="1.0" encoding="UTF-8" standalone="no"?>
<svg width="102px" height="20px" viewBox="0 0 102 20" version="1.1" xmlns="http://www.w3.org/2000/svg" xmlns:xlink="http://www.w3.org/1999/xlink">
    <!-- Generator: sketchtool 3.8.3 (29802) - http://www.bohemiancoding.com/sketch -->
    <title>9E3F9421-3AAD-4561-A0F9-94C0C46C51D3</title>
    <desc>Created with sketchtool.</desc>
    <defs></defs>
    <g id="Designs" stroke="none" stroke-width="1" fill="none" fill-rule="evenodd">
        <g id="5-Popup" transform="translate(-20.000000, -20.000000)">
            <g id="Alstom" transform="translate(20.000000, 20.000000)">
                <g id="svg1878">
                    <g id="layer1">
                        <g id="Ebene_x0020_1" transform="translate(0.082361, 0.114278)">
                            <g id="_47162240">
                                <path d="M101.819167,1.8480138 L101.819167,17.9319803 L97.7497397,17.9319803 L97.7497397,8.1143726 L93.9381595,13.316884 L93.3502964,13.316884 L89.5391643,8.1143726 L89.5391643,17.9319803 L85.4697373,17.9319803 L85.4697373,1.8480138 L89.0405354,1.8480138 L93.6315617,7.97426942 L98.2960199,1.8480138 L101.819167,1.8480138 L101.819167,1.8480138 L101.819167,1.8480138 Z M9.85202257,12.0196671 C8.65568809,11.8659202 6.9052537,12.0562813 5.83737428,12.5265636 L8.43396667,5.71001479 L13.4754002,17.9352385 L17.3242054,17.9352385 L10.6834779,1.82940126 L6.1630327,1.82940126 L-1.04499742e-14,17.9373971 L3.84509901,17.9373971 C4.5440265,15.5439135 7.60466992,13.739963 10.4426959,13.4842747 L9.85202257,12.0196671 L9.85202257,12.0196671 L9.85202257,12.0196671 Z M31.1549137,14.7836909 L31.1549137,17.9133677 L19.8913517,17.9133677 L19.8913517,1.83485877 L23.8676752,1.83485877 L23.8676752,14.7836909 L31.1549137,14.7836909 L31.1549137,14.7836909 Z M60.8944188,1.85672952 L60.8944188,4.97211093 L55.581454,4.97211093 L55.581454,17.9101095 L51.5108051,17.9101095 L51.5108051,4.97211093 L46.203868,4.97211093 L46.203868,1.85672952 L60.8944188,1.85672952 L60.8944188,1.85672952 L60.8944188,1.85672952 Z M43.9597736,5.18344679 C39.3879708,3.5387007 36.4371699,4.6661647 36.4371699,5.96945003 C36.4371699,8.9140196 45.1924371,7.23917577 45.1770828,12.9955834 C45.163887,17.3042448 41.5580631,18.4705222 37.8668739,18.4705222 C36.321259,18.4705222 34.3902788,18.2303512 32.9157337,17.7541633 L33.2987774,14.2917007 C34.4050222,14.8269437 36.0350249,15.1870577 37.8668739,15.1870577 C39.4635206,15.1870577 41.3638328,14.8691783 41.4640229,13.6128927 C41.7234581,10.3311795 32.7498906,12.3786815 32.7498906,6.37827435 C32.7498906,2.38374553 36.5456277,1.14362881 39.8767028,1.14362881 C41.4436998,1.14362881 43.5054972,1.67781288 44.2236888,2.00347131 L43.9597736,5.18344679 L43.9597736,5.18344679 Z" id="_47295312" fill="#183F7F"></path>
                                <path d="M81.6487897,14.4816138 C83.1636553,11.7449183 82.9387164,8.47012876 81.2967398,5.90428576 L82.3187191,4.82940119 C84.0575054,7.74607231 84.0771769,11.4131914 82.2037449,14.4651598 L81.6487897,14.4816138 L81.6487897,14.4816138 Z M67.0818881,10.9227489 C67.1033109,8.07234164 69.4387575,5.73514376 72.3801096,5.65804629 C75.3833677,5.57923826 77.8786296,7.88833405 77.9541795,10.8160016 C78.02977,13.7432212 75.6598271,16.180039 72.655958,16.2560368 C71.160153,16.2948503 69.7863274,15.740954 68.7803133,14.8111414 L67.9926402,15.6079782 C64.5264307,12.4005522 64.389097,7.05533108 67.6818474,3.66947724 C70.3280868,0.953593515 74.3844809,0.32756855 77.6729142,1.84585524 L77.7160448,1.89456553 L78.1358656,1.43035158 C73.9548855,-0.996039889 68.4388525,-0.311204174 64.9139952,3.30052531 C60.7579811,7.56051706 60.9588907,14.2917007 65.3288472,18.3321296 L66.1159093,17.5281247 C67.8421107,19.1120644 69.8575193,19.8952575 72.2066504,19.8372205 C76.9289419,19.7114128 80.6580078,15.8849263 80.5386757,11.278505 C80.4790912,8.97592566 79.468597,6.91522791 77.8786296,5.44609951 L78.4352954,4.87684892 C75.6876034,2.33287667 71.138771,2.38374553 68.4803947,5.11115518 C66.9078181,6.72751409 66.1668189,8.90318604 66.5193169,10.9435607 L67.0818881,10.9227489 L67.0818881,10.9227489 L67.0818881,10.9227489 Z" id="_47166048" fill="#C62038"></path>
                            </g>
                        </g>
                    </g>
                </g>
            </g>
        </g>
    </g>
</svg>