<?xml version="1.0" encoding="UTF-8" standalone="no"?>
<svg width="142px" height="142px" viewBox="0 0 142 142" version="1.1" xmlns="http://www.w3.org/2000/svg" xmlns:xlink="http://www.w3.org/1999/xlink">
    <!-- Generator: sketchtool 3.8.3 (29802) - http://www.bohemiancoding.com/sketch -->
    <title>544E2121-9A25-42C3-98C7-AE367D2C41DB</title>
    <desc>Created with sketchtool.</desc>
    <defs></defs>
    <g id="Designs" stroke="none" stroke-width="1" fill="none" fill-rule="evenodd">
        <g id="1-Map-overview" transform="translate(-129.000000, -401.000000)" stroke="#DDDDDD">
            <g id="Group-3" transform="translate(130.000000, 402.000000)">
                <circle id="Oval-6" cx="70" cy="70" r="70"></circle>
                <g id="ic-train-48-px" transform="translate(37.000000, 32.000000)">
                    <g id="Group">
                        <path d="M32,0 C16,0 0,2 0,16 L0,54 C0,61.72 6.28,68 14,68 L8,74 L8,76 L16.92,76 L24.92,68 L40,68 L48,76 L56,76 L56,74 L50,68 C57.72,68 64,61.72 64,54 L64,16 C64,2 49.68,0 32,0 L32,0 Z M14,60 C10.68,60 8,57.32 8,54 C8,50.68 10.68,48 14,48 C17.32,48 20,50.68 20,54 C20,57.32 17.32,60 14,60 L14,60 Z M28,32 L8,32 L8,16 L28,16 L28,32 L28,32 Z M36,32 L36,16 L56,16 L56,32 L36,32 L36,32 Z M50,60 C46.68,60 44,57.32 44,54 C44,50.68 46.68,48 50,48 C53.32,48 56,50.68 56,54 C56,57.32 53.32,60 50,60 L50,60 Z" id="Shape"></path>
                    </g>
                </g>
            </g>
        </g>
    </g>
</svg>