<?xml version="1.0" encoding="UTF-8" standalone="no"?>
<svg width="34px" height="94px" viewBox="0 0 34 94" version="1.1" xmlns="http://www.w3.org/2000/svg" xmlns:xlink="http://www.w3.org/1999/xlink">
    <!-- Generator: sketchtool 3.8.3 (29802) - http://www.bohemiancoding.com/sketch -->
    <title>F9F50240-A6B8-4705-9F20-BC2D508825F3</title>
    <desc>Created with sketchtool.</desc>
    <defs>
        <rect id="path-1" x="0" y="0" width="30" height="90" rx="3"></rect>
        <mask id="mask-2" maskContentUnits="userSpaceOnUse" maskUnits="objectBoundingBox" x="-2" y="-2" width="34" height="94">
            <rect x="-2" y="-2" width="34" height="94" fill="white"></rect>
            <use xlink:href="#path-1" fill="black"></use>
        </mask>
    </defs>
    <g id="Designs" stroke="none" stroke-width="1" fill="none" fill-rule="evenodd">
        <g id="5-Popup" transform="translate(-1148.000000, -18.000000)">
            <g id="Group-4" transform="translate(1150.000000, 20.000000)">
                <g id="Rectangle-88">
                    <use fill="#FFFFFF" fill-rule="evenodd" xlink:href="#path-1"></use>
                    <use stroke-opacity="0.1" stroke="#000000" mask="url(#mask-2)" stroke-width="4" xlink:href="#path-1"></use>
                </g>
                <rect id="Rectangle-89" fill="#DDDDDD" x="0" y="29" width="30" height="1"></rect>
                <rect id="Rectangle-89" fill="#DDDDDD" x="0" y="59" width="30" height="1"></rect>
                <g id="Unknown" transform="translate(10.000000, 9.000000)" fill="#333333">
                    <path d="M5,0 C4.3075,0 3.75,0.557488 3.75,1.25 L3.75,3.75 L1.25,3.75 C0.5575,3.75 0,4.3075 0,5 C0,5.6925 0.5575,6.25 1.25,6.25 L3.75,6.25 L3.75,8.75 C3.75,9.4425125 4.3075,10 5,10 C5.6925,10 6.25,9.4425125 6.25,8.75 L6.25,6.25 L8.75,6.25 C9.4425,6.25 10,5.6925 10,5 C10,4.3075 9.4425,3.75 8.75,3.75 L6.25,3.75 L6.25,1.25 C6.25,0.557488 5.6925,0 5,0 L5,0 Z" id="Shape"></path>
                </g>
                <g id="Unknown-1" transform="translate(10.000000, 43.000000)" fill="#333333">
                    <path d="M1.25,0 C0.5575,0 0,0.5575 0,1.25 C0,1.9425 0.5575,2.5 1.25,2.5 L8.75,2.5 C9.4425,2.5 10,1.9425 10,1.25 C10,0.5575 9.4425,0 8.75,0 L1.25,0 Z" id="Shape"></path>
                </g>
                <g id="Unknown-2" transform="translate(11.000000, 66.000000)">
                    <g id="Group">
                        <polygon id="Shape" fill="#333333" points="0 8 4 0 8 8"></polygon>
                        <polygon id="Shape" fill="#CCCCCC" points="0 10 4 18 8 10"></polygon>
                    </g>
                </g>
            </g>
        </g>
    </g>
</svg>